<svg width="222" height="57" viewBox="0 0 222 57" fill="none" xmlns="http://www.w3.org/2000/svg">
<path d="M23.5167 0.136353L0 23.653L4.14002 27.793L23.5204 8.41262L42.9008 27.793L47.0409 23.653L23.5167 0.136353ZM5.84429 29.5011L9.91644 33.5732L23.5204 19.9692L37.1244 33.5732L41.1928 29.5048L23.5167 11.8249L5.84429 29.5011Z" fill="#231F20"/>
<path d="M79.1916 17.3035V25.1348H60.833V33.0642H77.7927V40.4808H60.833V56.2415H52.0703V17.3035H79.1916Z" fill="#231F20"/>
<path d="M89.3415 56.2415H81.25V29.4822H89.3415V56.2415ZM89.1718 24.8709H81.4272V17.5372H89.1718V24.8709Z" fill="#231F20"/>
<path d="M99.9743 56.2415H91.8828V17.3035H99.9743V56.2415Z" fill="#231F20"/>
<path d="M129.015 43.6405V45.2467H109.204C109.48 47.0792 110.155 48.4818 111.229 49.4471C112.3 50.4161 113.665 50.8987 115.328 50.8987C117.956 50.8987 119.754 49.8958 120.723 47.8898H128.396C127.669 50.6574 126.13 52.8443 123.781 54.4505C121.428 56.0568 118.612 56.8637 115.328 56.8637C111.18 56.8637 107.824 55.5855 105.268 53.0253C102.708 50.4689 101.43 47.0792 101.43 42.86C101.43 38.6069 102.693 35.2209 105.215 32.6947C107.704 30.1383 111.041 28.8563 115.226 28.8563C119.374 28.8563 122.729 30.1873 125.286 32.8493C127.77 35.549 129.015 39.146 129.015 43.6405ZM115.117 34.825C111.799 34.825 109.842 36.5896 109.257 40.1151H121.082C120.806 38.456 120.146 37.159 119.11 36.2239C118.073 35.2926 116.742 34.825 115.117 34.825Z" fill="#231F20"/>
<path d="M147.479 29.4822H155.778L146.235 56.2415H136.59L127.047 29.4822H135.761C135.761 29.4822 141.518 48.0218 141.62 48.4026C141.722 48.0218 147.479 29.4822 147.479 29.4822Z" fill="#231F20"/>
<path d="M183.729 28.8601C186.564 28.8601 188.819 29.716 190.497 31.4278C192.175 33.1396 193.012 35.5678 193.012 38.7124V56.2415H184.92V40.3225C184.92 37.2797 183.484 35.7601 180.615 35.7601C179.163 35.7601 177.953 36.2428 176.984 37.2118C176.015 38.1808 175.532 39.5457 175.532 41.3103V56.2453H167.44V29.4822H175.325V33.2678C177.402 30.3306 180.2 28.8601 183.729 28.8601Z" fill="#231F20"/>
<path d="M221.999 43.6405V45.2467H202.189C202.464 47.0792 203.139 48.4818 204.214 49.4471C205.284 50.4161 206.649 50.8987 208.312 50.8987C210.94 50.8987 212.739 49.8958 213.708 47.8898H221.381C220.653 50.6574 219.115 52.8443 216.766 54.4505C214.413 56.0568 211.596 56.8637 208.312 56.8637C204.165 56.8637 200.809 55.5855 198.252 53.0253C195.692 50.4689 194.414 47.0792 194.414 42.86C194.414 38.6069 195.677 35.2209 198.2 32.6947C200.688 30.1383 204.025 28.8563 208.21 28.8563C212.358 28.8563 215.714 30.1873 218.27 32.8493C220.755 35.549 221.999 39.146 221.999 43.6405ZM208.101 34.825C204.783 34.825 202.826 36.5896 202.242 40.1151H214.066C213.791 38.456 213.131 37.159 212.094 36.2239C211.057 35.2926 209.726 34.825 208.101 34.825Z" fill="#231F20"/>
<path d="M164.903 56.2415H156.812V29.4822H164.903V56.2415ZM164.73 24.8709H156.985V17.5372H164.73V24.8709Z" fill="#231F20"/>
</svg>
