<svg width="258" height="55" viewBox="0 0 258 55" fill="none" xmlns="http://www.w3.org/2000/svg">
<g clip-path="url(#clip0_216_25)">
<path fill-rule="evenodd" clip-rule="evenodd" d="M73.6448 28.3462C70.8359 28.6976 69.0806 29.5176 67.9104 30.6894C66.9738 31.6263 66.5061 32.7977 66.5061 33.9691C66.5061 36.0778 68.0273 37.6007 69.8998 37.6007C71.0698 37.6007 72.24 37.1316 72.8253 36.4294C73.0592 36.1948 73.2935 35.7264 73.2935 35.258L73.6448 28.3462ZM78.4425 40.8804C76.1021 40.8804 73.9951 39.3576 73.4104 37.0153C72.24 39.1233 70.0167 40.8804 67.0912 40.8804C63.8145 40.8804 61.0059 38.3033 61.0059 35.0234C61.0059 30.4547 65.3359 27.175 73.5274 27.0578V25.8864C73.6445 22.6065 71.7721 20.6146 68.4953 20.6146C66.1544 20.6146 63.6975 22.1381 62.0591 24.129C61.9422 24.2463 61.2402 23.5438 61.2402 23.4263C63.3463 19.2096 67.2082 16.8666 71.187 16.8666C75.7504 16.8666 79.0274 20.1467 78.9102 25.652L78.5599 34.7893C78.5599 36.898 79.4958 37.8348 80.5489 37.8348C81.7188 37.8348 82.538 36.8978 83.0062 35.6086C83.0062 35.4918 83.708 35.8432 83.708 35.9602C83.708 39.1233 81.3678 40.8804 78.4421 40.8804H78.4425ZM107.581 40.0603H101.379C101.262 40.0603 101.262 38.8892 101.379 38.8892C103.953 38.5376 104.305 38.3033 104.305 33.2663V26.238C104.305 23.0749 102.432 20.8494 99.7406 20.8494C97.8684 20.8494 96.1128 21.7865 95.2936 22.9581C94.7085 23.6611 94.3575 24.9495 94.3575 26.5896V33.2663C94.3575 38.3035 94.9421 38.5376 97.5173 38.8892C97.5173 38.8892 97.634 40.0603 97.5173 40.0603H85.5802C85.4635 40.0603 85.4635 38.8892 85.4635 38.8892C88.2719 38.4201 88.6234 38.3033 88.6234 33.2663V24.715C88.6234 19.5605 88.038 19.3264 84.9949 18.858C84.7613 18.858 84.8782 17.6864 84.9949 17.6864H93.8891V22.8408H94.0065C95.9959 19.0919 99.0386 16.8664 102.783 16.8664C106.996 16.8664 110.273 20.1465 110.273 25.535V33.1493C110.273 38.1864 110.74 38.4205 113.549 38.7721C113.783 38.7721 113.666 39.9433 113.549 39.9433C111.794 40.0603 109.219 40.0603 107.581 40.0603M126.422 40.8804C119.401 40.8804 114.837 35.3748 114.837 29.0492C114.837 22.2549 119.401 16.8661 126.89 16.8661C130.401 16.8661 132.156 18.0378 133.21 18.0378C133.678 18.0378 134.146 17.6864 134.38 17.1007C134.38 16.9834 135.784 16.9834 135.784 17.1007V25.5348C135.784 25.652 134.38 25.652 134.38 25.5348C132.508 21.669 129.933 18.3894 126.891 18.3894C123.145 18.3894 120.922 22.3722 120.922 27.8775C120.922 33.7345 123.965 37.6007 128.178 37.6007C130.986 37.6007 134.146 35.6091 135.433 33.3834C135.55 33.1488 136.486 33.6179 136.486 33.8525C134.965 37.8348 130.986 40.8804 126.422 40.8804M154.859 26.0034V24.3634C154.859 20.7319 153.103 18.6235 150.88 18.6235C148.071 18.6235 145.965 21.669 145.497 26.0034H154.859H154.859ZM145.497 28.6973C145.497 33.7345 148.306 37.6003 153.103 37.6003C155.912 37.6003 158.72 35.7261 160.242 33.3829C160.242 33.2661 161.178 33.6175 161.178 33.852C159.891 37.8348 155.678 40.8801 150.997 40.8801C143.625 40.8801 139.295 35.4916 139.295 29.0489C139.295 22.6063 143.859 16.8664 151.582 16.8664C157.433 16.8664 161.295 20.7319 161.646 26.0034V27.6435H145.731C145.497 27.8775 145.497 28.4632 145.497 28.6978L145.497 28.6973ZM173.349 40.8804C169.721 40.8804 166.561 39.9438 165.508 39.2403C165.391 39.1233 165.04 36.0778 165.04 33.032C165.04 32.9152 166.444 32.7974 166.444 33.032C168.316 37.1319 171.008 39.4746 173.934 39.4746C176.391 39.4746 178.146 38.1864 178.146 36.1948C178.146 33.8522 175.338 32.7977 172.53 31.5092C169.136 30.2208 165.274 28.4635 165.274 24.1295C165.274 20.7319 168.2 17.2177 173.7 17.2177C176.041 17.2177 177.562 18.1548 178.615 18.1548C179.083 18.1548 179.551 17.8037 179.902 17.2177C179.902 17.1007 181.306 17.1007 181.306 17.2177V24.9495C181.306 25.0666 179.902 25.0666 179.902 24.9495C178.029 21.4351 175.806 18.9751 173.115 18.9751C170.657 18.9751 169.486 20.6151 169.486 21.904C169.486 24.2466 172.178 25.1836 174.986 26.3552C178.38 27.7607 182.359 29.5183 182.359 33.9693C182.359 37.7176 178.849 40.8801 173.348 40.8801M184.934 20.1462C184.583 20.1462 184.466 19.2089 184.817 18.9748C187.274 16.7489 191.37 13.0006 193.593 10.6576C193.711 10.5403 194.53 10.6576 194.53 10.8921V17.803H202.487C202.722 17.803 202.722 20.0287 202.487 20.0287H194.53V33.0315C194.53 35.96 196.285 37.2484 198.158 37.2484C199.562 37.2484 201.083 36.0775 201.786 34.6713C201.786 34.5545 202.722 35.0229 202.722 35.1405C201.786 38.3035 198.743 40.7629 195.349 40.7629C191.721 40.7629 188.796 38.4201 188.796 33.8516V20.146L184.934 20.1462ZM221.914 23.8952C221.211 23.8952 219.456 21.7865 218.169 21.7865C217.583 21.7865 216.881 22.1379 216.296 22.7236C215.36 23.6606 214.541 25.8866 214.541 27.7607V33.3836C214.541 38.5378 215.36 38.6549 218.052 39.006C218.052 39.006 218.169 40.1772 218.052 40.1772H205.648C205.531 40.1772 205.531 39.0062 205.648 39.0062C208.457 38.5376 208.808 38.4203 208.808 33.3838V24.8318C208.808 19.7946 208.223 19.4433 205.18 18.9748C204.945 18.9748 205.063 17.8032 205.18 17.8032H214.19V23.6602H214.424C214.659 22.9574 215.126 22.1374 215.478 21.3174C217.115 18.623 219.106 16.983 221.212 16.983C223.201 16.983 224.84 18.506 224.84 20.146C224.956 22.0201 222.499 23.8943 221.914 23.8943M246.137 26.9405L238.53 46.5032C235.839 53.4145 233.381 54.8205 230.105 54.8205C228.232 54.8205 226.126 53.8832 226.126 53.2977C226.009 52.3604 227.296 48.9635 227.998 48.9635C228.232 48.9635 231.041 50.2515 232.445 50.2515C234.434 50.2515 235.722 48.9635 236.775 46.1519L238.179 42.4031C237.711 40.529 232.094 28.2292 231.392 26.5889C229.988 23.3088 229.051 20.7319 228.115 19.7946C227.531 19.2087 226.945 18.9748 225.307 18.7403C225.19 18.7403 225.19 17.5687 225.307 17.5687C226.828 17.5687 229.988 17.6857 231.743 17.6857C233.499 17.6857 236.541 17.5684 238.063 17.5684C238.179 17.5684 238.179 18.74 238.063 18.74C234.552 19.2082 234.903 20.3796 236.775 25.0657L240.871 35.0225L244.148 26.4711C245.318 23.5427 245.903 21.7856 245.903 20.7312C245.903 19.4423 245.084 18.9739 242.626 18.8571C242.509 18.8571 242.509 17.5682 242.626 17.5682C244.265 17.5682 246.371 17.6852 247.775 17.6852C248.829 17.6852 249.882 17.568 251.871 17.568C251.988 17.568 252.105 18.8569 251.871 18.8569C250.584 18.9737 249.999 19.325 249.297 20.0278C248.361 20.9651 247.659 22.8392 246.137 26.9391L246.137 26.9405Z" fill="#54524F"/>
<path fill-rule="evenodd" clip-rule="evenodd" d="M34.4395 16.2806C30.3437 11.8292 26.2482 12.5324 25.546 12.6492C25.897 12.7662 26.2482 20.4978 30.5781 24.5977C33.5036 27.2916 39.4718 26.3545 39.4718 26.3545C39.4718 26.3545 38.4183 20.6148 34.4395 16.2806ZM39.3551 31.3921C38.0675 31.3921 32.8016 31.8608 29.2909 36.1948C25.6631 40.7635 25.7801 44.395 24.9609 45.2147C25.6631 45.4493 33.0356 46.1518 36.1953 41.3492C39.2377 36.8973 39.3551 32.0949 39.3551 31.3921ZM7.29013 28.2286C8.10909 28.3461 10.9179 31.9776 15.95 32.446C21.45 33.0322 23.3223 30.2207 23.4397 30.2207C23.4397 29.8691 18.9927 25.0665 14.0778 25.0665C10.6836 25.1833 7.29013 28.2286 7.29013 28.2286ZM27.3011 30.6892C27.1841 30.8062 22.6205 36.8977 11.854 35.2577C3.19416 33.852 0.034555 29.0489 -0.550781 28.9318C0.151483 27.9945 6.70502 22.7233 14.3111 22.8403C21.801 23.0749 27.3008 27.2918 27.3008 27.2918H32.0986C28.2372 26.1204 23.5563 24.012 21.4498 19.3262C19.5775 14.9922 19.9286 12.4149 19.1094 8.78363C19.1094 8.78363 27.769 8.08065 34.4395 12.4149C40.5248 16.3977 43.9183 26.9404 44.0355 27.2918H47.7799L46.9612 8.54907L51.642 8.66612C50.8231 13.5862 51.8764 48.7289 51.642 48.7289C51.1741 48.8457 47.1951 49.0796 46.8443 48.1428C46.8443 48.1428 47.7804 30.923 47.8976 30.5714H44.2693C44.2693 30.806 43.9183 40.5285 36.546 45.6829C29.1731 50.8371 18.5243 49.3142 18.5243 49.3142C19.8119 47.3227 18.5243 45.2143 22.2687 39.4744C26.5988 32.9144 32.3329 30.5714 32.2162 30.5714C31.8652 30.6889 27.4185 30.6892 27.3011 30.6892Z" fill="#9CBE30"/>
<path fill-rule="evenodd" clip-rule="evenodd" d="M256.414 19.7312C256.754 19.7312 256.992 19.607 256.992 19.3123C256.992 19.0522 256.855 18.8826 256.448 18.8826H256.086V19.7314L256.414 19.7312ZM255.725 18.5654H256.505C256.946 18.5654 257.375 18.724 257.375 19.29C257.375 19.5728 257.183 19.845 256.923 19.924L257.477 20.897H257.058L256.617 20.0368H256.086V20.897H255.725V18.5654ZM258.201 19.7765C258.201 18.6896 257.443 17.8861 256.493 17.8861C255.544 17.8861 254.786 18.6896 254.786 19.7765C254.786 20.8517 255.544 21.6327 256.493 21.6327C257.443 21.6327 258.201 20.852 258.201 19.7765ZM254.436 19.7765C254.436 18.4521 255.374 17.5693 256.493 17.5693C257.624 17.5693 258.551 18.4523 258.551 19.7767C258.551 21.0898 257.624 21.9614 256.493 21.9614C255.374 21.9614 254.436 21.0895 254.436 19.7765Z" fill="#54524F"/>
</g>
<defs>
<clipPath id="clip0_216_25">
<rect width="258" height="55" fill="white"/>
</clipPath>
</defs>
</svg>
