<svg width="622" height="452" viewBox="0 0 622 452" fill="none" xmlns="http://www.w3.org/2000/svg">
<g clip-path="url(#clip0_157_626)">
<path d="M301.097 40.174C306.416 37.3571 312.785 37.3571 318.103 40.174L479.537 125.671L309.6 215.671L139.663 125.671L301.097 40.174Z" fill="url(#paint0_linear_157_626)"/>
<g filter="url(#filter0_i_157_626)">
<path d="M139.666 352.858V125.371L310.44 215.2V451.532L148.226 366.974C142.965 364.231 139.666 358.791 139.666 352.858Z" fill="url(#paint1_linear_157_626)"/>
</g>
<g filter="url(#filter1_i_157_626)">
<path d="M479.622 352.613V125.671L310.438 215.122V451.532L469.829 368.735C475.846 365.61 479.622 359.393 479.622 352.613Z" fill="url(#paint2_linear_157_626)"/>
</g>
<path d="M301.89 39.1599C306.181 36.7963 311.375 36.754 315.704 39.0469L478.704 125.373C478.704 125.373 376.192 94.8741 308.767 94.8741C241.341 94.8741 223.238 82.4759 223.238 82.4759L301.89 39.1599Z" fill="url(#paint3_linear_157_626)" fill-opacity="0.4"/>
<path d="M191.719 207.426L268.028 247.84L191.719 288.253L115.411 247.84L191.719 207.426Z" fill="url(#paint4_linear_157_626)"/>
<g filter="url(#filter2_i_157_626)">
<path d="M115.412 354.189V247.704L192.097 288.188V394.163L115.412 354.189Z" fill="url(#paint5_linear_157_626)"/>
</g>
<g filter="url(#filter3_i_157_626)">
<path d="M268.064 354.702V247.911L192.094 288.191V394.163L268.064 354.702Z" fill="url(#paint6_linear_157_626)"/>
</g>
<path d="M191.746 207.425L267.651 247.706C267.651 247.706 221.619 234.011 191.342 234.011C161.066 234.011 152.618 228.165 152.618 228.165L191.746 207.425Z" fill="url(#paint7_linear_157_626)" fill-opacity="0.4"/>
<path d="M203.77 140.367L249.136 115.296L310.222 148.127L254.309 175.785L203.77 140.367Z" fill="url(#paint8_linear_157_626)" fill-opacity="0.4"/>
<path d="M312.024 268.413L356.196 243.938V350.987L288.346 384.614L312.024 268.413Z" fill="url(#paint9_linear_157_626)" fill-opacity="0.4"/>
<path d="M305.963 0.863093C307.873 -0.149026 310.161 -0.149026 312.072 0.863093L370.064 31.576L309.017 63.907L247.971 31.576L305.963 0.863093Z" fill="url(#paint10_linear_157_626)"/>
<g filter="url(#filter4_i_157_626)">
<path d="M247.973 113.189V31.4683L309.32 63.8551V148.635L251.048 118.259C249.158 117.274 247.973 115.32 247.973 113.189Z" fill="url(#paint11_linear_157_626)"/>
</g>
<g filter="url(#filter5_i_157_626)">
<path d="M370.093 113.1V31.6311L309.316 63.8547V148.635L366.575 118.891C368.736 117.769 370.093 115.535 370.093 113.1Z" fill="url(#paint12_linear_157_626)"/>
</g>
<path d="M306.246 0.498266C307.788 -0.351137 309.653 -0.366064 311.208 0.457464L369.763 31.4684C369.763 31.4684 332.938 20.5122 308.716 20.5122C284.495 20.5122 277.992 16.0582 277.992 16.0582L306.246 0.498266Z" fill="url(#paint13_linear_157_626)" fill-opacity="0.4"/>
<path d="M430.617 204.239L506.926 244.652L430.617 285.065L354.309 244.652L430.617 204.239Z" fill="url(#paint14_linear_157_626)"/>
<g filter="url(#filter6_i_157_626)">
<path d="M354.309 346.668V244.518L430.993 285.002V390.979L358.153 353.007C355.79 351.775 354.309 349.332 354.309 346.668Z" fill="url(#paint15_linear_157_626)"/>
</g>
<g filter="url(#filter7_i_157_626)">
<path d="M506.961 351.514V244.723L430.992 285.003V390.979L506.961 351.514Z" fill="url(#paint16_linear_157_626)"/>
</g>
<path d="M430.496 204.371L506.596 244.626C506.596 244.626 460.518 230.823 430.241 230.823C399.965 230.823 391.602 224.897 391.602 224.897L430.496 204.371Z" fill="url(#paint17_linear_157_626)" fill-opacity="0.4"/>
<g filter="url(#filter8_f_157_626)">
<path d="M283.569 125.953L196.02 168.932V227.033L136.327 258.073V309.011" stroke="#041313" stroke-opacity="0.55" stroke-width="0.639794" stroke-linecap="round"/>
</g>
<g filter="url(#filter9_f_157_626)">
<path d="M336.102 123.565L402.162 168.931V227.032L464.668 267.563V311.338" stroke="#041313" stroke-opacity="0.28" stroke-width="0.639794" stroke-linecap="round"/>
</g>
<g filter="url(#filter10_f_157_626)">
<path d="M348.836 123.565L414.896 168.931V227.032L474.589 265.235V309.01" stroke="#041313" stroke-opacity="0.28" stroke-width="0.639794" stroke-linecap="round"/>
</g>
<g filter="url(#filter11_f_157_626)">
<path d="M213.133 177.533C226.101 177.533 236.613 172.935 236.613 167.263C236.613 161.591 226.101 156.993 213.133 156.993C200.166 156.993 189.654 161.591 189.654 167.263C189.654 172.935 200.166 177.533 213.133 177.533Z" fill="#1E0404" fill-opacity="0.7"/>
</g>
<path d="M153.838 328.908C156.036 328.908 157.817 326.147 157.817 322.74C157.817 319.333 156.036 316.572 153.838 316.572C151.64 316.572 149.858 319.333 149.858 322.74C149.858 326.147 151.64 328.908 153.838 328.908Z" fill="#3F1E6C"/>
<path d="M279.591 98.7911C281.789 98.7911 283.57 96.0295 283.57 92.6228C283.57 89.2162 281.789 86.4546 279.591 86.4546C277.393 86.4546 275.611 89.2162 275.611 92.6228C275.611 96.0295 277.393 98.7911 279.591 98.7911Z" fill="#3F1E6C"/>
<path d="M348.835 98.7911C351.033 98.7911 352.815 96.0295 352.815 92.6228C352.815 89.2162 351.033 86.4546 348.835 86.4546C346.637 86.4546 344.855 89.2162 344.855 92.6228C344.855 96.0295 346.637 98.7911 348.835 98.7911Z" fill="#4E609A"/>
<path d="M338.753 103.468C340.951 103.468 342.732 100.706 342.732 97.2998C342.732 93.8932 340.951 91.1316 338.753 91.1316C336.555 91.1316 334.773 93.8932 334.773 97.2998C334.773 100.706 336.555 103.468 338.753 103.468Z" fill="#4E609A"/>
<path d="M465.835 324.147C468.033 324.147 469.814 321.386 469.814 317.979C469.814 314.572 468.033 311.811 465.835 311.811C463.637 311.811 461.855 314.572 461.855 317.979C461.855 321.386 463.637 324.147 465.835 324.147Z" fill="#4E609A"/>
<path d="M476.974 318.46C479.171 318.46 480.953 315.698 480.953 312.292C480.953 308.885 479.171 306.124 476.974 306.124C474.776 306.124 472.994 308.885 472.994 312.292C472.994 315.698 474.776 318.46 476.974 318.46Z" fill="#4E609A"/>
<path d="M153.838 322.541L144.54 327.323C136.065 331.682 125.981 325.529 125.981 315.999V208.08C125.981 186.922 137.64 167.486 156.306 157.524L279.591 91.7297" stroke="#52F2F2" stroke-width="0.639794" stroke-linecap="round"/>
<path d="M213.267 149.482C225.308 149.482 235.068 139.722 235.068 127.682C235.068 115.642 225.308 105.881 213.267 105.881C201.227 105.881 191.467 115.642 191.467 127.682C191.467 139.722 201.227 149.482 213.267 149.482Z" fill="url(#paint18_linear_157_626)"/>
<mask id="mask0_157_626" style="mask-type:alpha" maskUnits="userSpaceOnUse" x="191" y="105" width="45" height="45">
<path d="M213.265 149.48C225.306 149.48 235.066 139.719 235.066 127.679C235.066 115.639 225.306 105.879 213.265 105.879C201.225 105.879 191.465 115.639 191.465 127.679C191.465 139.719 201.225 149.48 213.265 149.48Z" fill="url(#paint19_linear_157_626)"/>
</mask>
<g mask="url(#mask0_157_626)">
<g filter="url(#filter12_f_157_626)">
<path d="M228.621 136.163C221.403 143.494 222.271 120.614 215.462 113.91C208.654 107.206 196.747 119.219 203.966 111.887C211.185 104.555 222.557 104.046 229.365 110.749C236.173 117.453 235.84 128.831 228.621 136.163Z" fill="#BFE6F1"/>
</g>
<g filter="url(#filter13_f_157_626)">
<path d="M226.993 114.625C235.667 122.667 210.838 120.851 204.293 127.911C197.749 134.97 211.969 148.23 203.295 140.188C194.621 132.147 192.894 119.906 199.438 112.847C205.983 105.787 218.319 106.584 226.993 114.625Z" fill="#69E3F8" fill-opacity="0.6"/>
</g>
<g filter="url(#filter14_f_157_626)">
<path d="M194.894 139.219C195.451 134.987 208.033 143.723 216.388 144.824C224.745 145.925 225.711 138.974 225.153 143.206C224.595 147.439 217.369 149.978 209.014 148.877C200.658 147.776 194.336 143.452 194.894 139.219Z" fill="#27468B"/>
</g>
<g filter="url(#filter15_f_157_626)">
<path d="M225.778 133.683C224.608 145.099 216.58 125.313 210.42 124.681C204.26 124.05 202.3 142.812 203.47 131.396C204.64 119.979 210.583 111.237 216.743 111.868C222.904 112.5 226.949 122.266 225.778 133.683Z" fill="#91EEFF"/>
</g>
</g>
<path d="M215.668 107.737C208.561 106.813 194.273 109.987 193.975 130.065C195.33 123.333 201.566 109.442 215.668 107.737Z" fill="#A5F9FE" fill-opacity="0.21"/>
<path d="M349.234 93.322L478.967 169.984C489.572 176.251 496.079 187.654 496.079 199.972V312.253C496.079 317.167 490.748 320.229 486.503 317.753L476.977 312.196" stroke="#52F2F2" stroke-width="0.639794" stroke-linecap="round"/>
<path d="M339.285 97.3008L474.519 179.056C481.973 183.562 486.527 191.638 486.527 200.348V317.668C486.527 322.583 481.197 325.644 476.952 323.168L467.426 317.611" stroke="#52F2F2" stroke-width="0.639794" stroke-linecap="round"/>
</g>
<defs>
<filter id="filter0_i_157_626" x="139.666" y="125.371" width="170.773" height="326.891" filterUnits="userSpaceOnUse" color-interpolation-filters="sRGB">
<feFlood flood-opacity="0" result="BackgroundImageFix"/>
<feBlend mode="normal" in="SourceGraphic" in2="BackgroundImageFix" result="shape"/>
<feColorMatrix in="SourceAlpha" type="matrix" values="0 0 0 0 0 0 0 0 0 0 0 0 0 0 0 0 0 0 127 0" result="hardAlpha"/>
<feOffset dy="0.730204"/>
<feGaussianBlur stdDeviation="0.365102"/>
<feComposite in2="hardAlpha" operator="arithmetic" k2="-1" k3="1"/>
<feColorMatrix type="matrix" values="0 0 0 0 1 0 0 0 0 1 0 0 0 0 1 0 0 0 0.25 0"/>
<feBlend mode="normal" in2="shape" result="effect1_innerShadow_157_626"/>
</filter>
<filter id="filter1_i_157_626" x="310.438" y="125.671" width="169.184" height="326.591" filterUnits="userSpaceOnUse" color-interpolation-filters="sRGB">
<feFlood flood-opacity="0" result="BackgroundImageFix"/>
<feBlend mode="normal" in="SourceGraphic" in2="BackgroundImageFix" result="shape"/>
<feColorMatrix in="SourceAlpha" type="matrix" values="0 0 0 0 0 0 0 0 0 0 0 0 0 0 0 0 0 0 127 0" result="hardAlpha"/>
<feOffset dy="0.730204"/>
<feGaussianBlur stdDeviation="0.365102"/>
<feComposite in2="hardAlpha" operator="arithmetic" k2="-1" k3="1"/>
<feColorMatrix type="matrix" values="0 0 0 0 1 0 0 0 0 1 0 0 0 0 1 0 0 0 1 0"/>
<feBlend mode="normal" in2="shape" result="effect1_innerShadow_157_626"/>
</filter>
<filter id="filter2_i_157_626" x="115.412" y="247.704" width="76.6855" height="146.787" filterUnits="userSpaceOnUse" color-interpolation-filters="sRGB">
<feFlood flood-opacity="0" result="BackgroundImageFix"/>
<feBlend mode="normal" in="SourceGraphic" in2="BackgroundImageFix" result="shape"/>
<feColorMatrix in="SourceAlpha" type="matrix" values="0 0 0 0 0 0 0 0 0 0 0 0 0 0 0 0 0 0 127 0" result="hardAlpha"/>
<feOffset dy="0.32789"/>
<feGaussianBlur stdDeviation="0.163945"/>
<feComposite in2="hardAlpha" operator="arithmetic" k2="-1" k3="1"/>
<feColorMatrix type="matrix" values="0 0 0 0 1 0 0 0 0 1 0 0 0 0 1 0 0 0 0.25 0"/>
<feBlend mode="normal" in2="shape" result="effect1_innerShadow_157_626"/>
</filter>
<filter id="filter3_i_157_626" x="192.094" y="247.911" width="75.9707" height="146.581" filterUnits="userSpaceOnUse" color-interpolation-filters="sRGB">
<feFlood flood-opacity="0" result="BackgroundImageFix"/>
<feBlend mode="normal" in="SourceGraphic" in2="BackgroundImageFix" result="shape"/>
<feColorMatrix in="SourceAlpha" type="matrix" values="0 0 0 0 0 0 0 0 0 0 0 0 0 0 0 0 0 0 127 0" result="hardAlpha"/>
<feOffset dy="0.32789"/>
<feGaussianBlur stdDeviation="0.163945"/>
<feComposite in2="hardAlpha" operator="arithmetic" k2="-1" k3="1"/>
<feColorMatrix type="matrix" values="0 0 0 0 1 0 0 0 0 1 0 0 0 0 1 0 0 0 1 0"/>
<feBlend mode="normal" in2="shape" result="effect1_innerShadow_157_626"/>
</filter>
<filter id="filter4_i_157_626" x="247.973" y="31.4683" width="61.3477" height="117.429" filterUnits="userSpaceOnUse" color-interpolation-filters="sRGB">
<feFlood flood-opacity="0" result="BackgroundImageFix"/>
<feBlend mode="normal" in="SourceGraphic" in2="BackgroundImageFix" result="shape"/>
<feColorMatrix in="SourceAlpha" type="matrix" values="0 0 0 0 0 0 0 0 0 0 0 0 0 0 0 0 0 0 127 0" result="hardAlpha"/>
<feOffset dy="0.262312"/>
<feGaussianBlur stdDeviation="0.131156"/>
<feComposite in2="hardAlpha" operator="arithmetic" k2="-1" k3="1"/>
<feColorMatrix type="matrix" values="0 0 0 0 1 0 0 0 0 1 0 0 0 0 1 0 0 0 0.25 0"/>
<feBlend mode="normal" in2="shape" result="effect1_innerShadow_157_626"/>
</filter>
<filter id="filter5_i_157_626" x="309.316" y="31.6311" width="60.7773" height="117.266" filterUnits="userSpaceOnUse" color-interpolation-filters="sRGB">
<feFlood flood-opacity="0" result="BackgroundImageFix"/>
<feBlend mode="normal" in="SourceGraphic" in2="BackgroundImageFix" result="shape"/>
<feColorMatrix in="SourceAlpha" type="matrix" values="0 0 0 0 0 0 0 0 0 0 0 0 0 0 0 0 0 0 127 0" result="hardAlpha"/>
<feOffset dy="0.262312"/>
<feGaussianBlur stdDeviation="0.131156"/>
<feComposite in2="hardAlpha" operator="arithmetic" k2="-1" k3="1"/>
<feColorMatrix type="matrix" values="0 0 0 0 1 0 0 0 0 1 0 0 0 0 1 0 0 0 1 0"/>
<feBlend mode="normal" in2="shape" result="effect1_innerShadow_157_626"/>
</filter>
<filter id="filter6_i_157_626" x="354.309" y="244.518" width="76.6836" height="146.789" filterUnits="userSpaceOnUse" color-interpolation-filters="sRGB">
<feFlood flood-opacity="0" result="BackgroundImageFix"/>
<feBlend mode="normal" in="SourceGraphic" in2="BackgroundImageFix" result="shape"/>
<feColorMatrix in="SourceAlpha" type="matrix" values="0 0 0 0 0 0 0 0 0 0 0 0 0 0 0 0 0 0 127 0" result="hardAlpha"/>
<feOffset dy="0.32789"/>
<feGaussianBlur stdDeviation="0.163945"/>
<feComposite in2="hardAlpha" operator="arithmetic" k2="-1" k3="1"/>
<feColorMatrix type="matrix" values="0 0 0 0 1 0 0 0 0 1 0 0 0 0 1 0 0 0 0.25 0"/>
<feBlend mode="normal" in2="shape" result="effect1_innerShadow_157_626"/>
</filter>
<filter id="filter7_i_157_626" x="430.992" y="244.723" width="75.9688" height="146.584" filterUnits="userSpaceOnUse" color-interpolation-filters="sRGB">
<feFlood flood-opacity="0" result="BackgroundImageFix"/>
<feBlend mode="normal" in="SourceGraphic" in2="BackgroundImageFix" result="shape"/>
<feColorMatrix in="SourceAlpha" type="matrix" values="0 0 0 0 0 0 0 0 0 0 0 0 0 0 0 0 0 0 127 0" result="hardAlpha"/>
<feOffset dy="0.32789"/>
<feGaussianBlur stdDeviation="0.163945"/>
<feComposite in2="hardAlpha" operator="arithmetic" k2="-1" k3="1"/>
<feColorMatrix type="matrix" values="0 0 0 0 1 0 0 0 0 1 0 0 0 0 1 0 0 0 1 0"/>
<feBlend mode="normal" in2="shape" result="effect1_innerShadow_157_626"/>
</filter>
<filter id="filter8_f_157_626" x="134.087" y="123.713" width="151.721" height="187.537" filterUnits="userSpaceOnUse" color-interpolation-filters="sRGB">
<feFlood flood-opacity="0" result="BackgroundImageFix"/>
<feBlend mode="normal" in="SourceGraphic" in2="BackgroundImageFix" result="shape"/>
<feGaussianBlur stdDeviation="0.959691" result="effect1_foregroundBlur_157_626"/>
</filter>
<filter id="filter9_f_157_626" x="333.862" y="121.325" width="133.046" height="192.252" filterUnits="userSpaceOnUse" color-interpolation-filters="sRGB">
<feFlood flood-opacity="0" result="BackgroundImageFix"/>
<feBlend mode="normal" in="SourceGraphic" in2="BackgroundImageFix" result="shape"/>
<feGaussianBlur stdDeviation="0.959691" result="effect1_foregroundBlur_157_626"/>
</filter>
<filter id="filter10_f_157_626" x="346.596" y="121.325" width="130.231" height="189.924" filterUnits="userSpaceOnUse" color-interpolation-filters="sRGB">
<feFlood flood-opacity="0" result="BackgroundImageFix"/>
<feBlend mode="normal" in="SourceGraphic" in2="BackgroundImageFix" result="shape"/>
<feGaussianBlur stdDeviation="0.959691" result="effect1_foregroundBlur_157_626"/>
</filter>
<filter id="filter11_f_157_626" x="184.536" y="151.875" width="57.1957" height="30.7763" filterUnits="userSpaceOnUse" color-interpolation-filters="sRGB">
<feFlood flood-opacity="0" result="BackgroundImageFix"/>
<feBlend mode="normal" in="SourceGraphic" in2="BackgroundImageFix" result="shape"/>
<feGaussianBlur stdDeviation="2.55918" result="effect1_foregroundBlur_157_626"/>
</filter>
<filter id="filter12_f_157_626" x="200.358" y="104.674" width="35.2671" height="34.2839" filterUnits="userSpaceOnUse" color-interpolation-filters="sRGB">
<feFlood flood-opacity="0" result="BackgroundImageFix"/>
<feBlend mode="normal" in="SourceGraphic" in2="BackgroundImageFix" result="shape"/>
<feGaussianBlur stdDeviation="0.681513" result="effect1_foregroundBlur_157_626"/>
</filter>
<filter id="filter13_f_157_626" x="194.106" y="106.669" width="36.0678" height="37.3896" filterUnits="userSpaceOnUse" color-interpolation-filters="sRGB">
<feFlood flood-opacity="0" result="BackgroundImageFix"/>
<feBlend mode="normal" in="SourceGraphic" in2="BackgroundImageFix" result="shape"/>
<feGaussianBlur stdDeviation="0.681513" result="effect1_foregroundBlur_157_626"/>
</filter>
<filter id="filter14_f_157_626" x="193.496" y="136.707" width="33.1479" height="13.7903" filterUnits="userSpaceOnUse" color-interpolation-filters="sRGB">
<feFlood flood-opacity="0" result="BackgroundImageFix"/>
<feBlend mode="normal" in="SourceGraphic" in2="BackgroundImageFix" result="shape"/>
<feGaussianBlur stdDeviation="0.681513" result="effect1_foregroundBlur_157_626"/>
</filter>
<filter id="filter15_f_157_626" x="198.865" y="107.552" width="31.3996" height="33.9555" filterUnits="userSpaceOnUse" color-interpolation-filters="sRGB">
<feFlood flood-opacity="0" result="BackgroundImageFix"/>
<feBlend mode="normal" in="SourceGraphic" in2="BackgroundImageFix" result="shape"/>
<feGaussianBlur stdDeviation="2.1419" result="effect1_foregroundBlur_157_626"/>
</filter>
<linearGradient id="paint0_linear_157_626" x1="357.673" y1="44.3235" x2="285.003" y2="196.93" gradientUnits="userSpaceOnUse">
<stop stop-color="#6BE8F0"/>
<stop offset="1" stop-color="#6132AF"/>
</linearGradient>
<linearGradient id="paint1_linear_157_626" x1="225.053" y1="167.86" x2="225.053" y2="542.11" gradientUnits="userSpaceOnUse">
<stop stop-color="#6C4DB8"/>
<stop offset="1" stop-color="#370D58"/>
</linearGradient>
<linearGradient id="paint2_linear_157_626" x1="395.029" y1="175.129" x2="395.029" y2="533.029" gradientUnits="userSpaceOnUse">
<stop stop-color="#88C1E0"/>
<stop offset="1" stop-color="#A939C5"/>
</linearGradient>
<linearGradient id="paint3_linear_157_626" x1="377.813" y1="56.3266" x2="256.351" y2="154.853" gradientUnits="userSpaceOnUse">
<stop stop-color="#DCD4EF"/>
<stop offset="1" stop-color="white" stop-opacity="0.01"/>
</linearGradient>
<linearGradient id="paint4_linear_157_626" x1="213.305" y1="211.312" x2="180.674" y2="279.838" gradientUnits="userSpaceOnUse">
<stop stop-color="#6BE8F0"/>
<stop offset="1" stop-color="#6132AF"/>
</linearGradient>
<linearGradient id="paint5_linear_157_626" x1="153.755" y1="266.784" x2="153.755" y2="434.837" gradientUnits="userSpaceOnUse">
<stop stop-color="#6C4DB8"/>
<stop offset="1" stop-color="#370D58"/>
</linearGradient>
<linearGradient id="paint6_linear_157_626" x1="230.079" y1="270.05" x2="230.079" y2="430.762" gradientUnits="userSpaceOnUse">
<stop stop-color="#88C1E0"/>
<stop offset="1" stop-color="#A939C5"/>
</linearGradient>
<linearGradient id="paint7_linear_157_626" x1="222.347" y1="216.702" x2="167.806" y2="260.944" gradientUnits="userSpaceOnUse">
<stop stop-color="#DCD4EF"/>
<stop offset="1" stop-color="white" stop-opacity="0.01"/>
</linearGradient>
<linearGradient id="paint8_linear_157_626" x1="283.36" y1="126.837" x2="269.034" y2="161.857" gradientUnits="userSpaceOnUse">
<stop/>
<stop offset="1" stop-opacity="0"/>
</linearGradient>
<linearGradient id="paint9_linear_157_626" x1="354.406" y1="294.08" x2="316.401" y2="294.478" gradientUnits="userSpaceOnUse">
<stop/>
<stop offset="0.962967" stop-opacity="0"/>
</linearGradient>
<linearGradient id="paint10_linear_157_626" x1="326.286" y1="2.35341" x2="300.181" y2="57.1745" gradientUnits="userSpaceOnUse">
<stop stop-color="#6BE8F0"/>
<stop offset="1" stop-color="#6132AF"/>
</linearGradient>
<linearGradient id="paint11_linear_157_626" x1="278.646" y1="46.7316" x2="278.646" y2="181.174" gradientUnits="userSpaceOnUse">
<stop stop-color="#6C4DB8"/>
<stop offset="1" stop-color="#370D58"/>
</linearGradient>
<linearGradient id="paint12_linear_157_626" x1="339.704" y1="49.3422" x2="339.704" y2="177.911" gradientUnits="userSpaceOnUse">
<stop stop-color="#88C1E0"/>
<stop offset="1" stop-color="#A939C5"/>
</linearGradient>
<linearGradient id="paint13_linear_157_626" x1="333.52" y1="6.66502" x2="289.887" y2="42.0588" gradientUnits="userSpaceOnUse">
<stop stop-color="#DCD4EF"/>
<stop offset="1" stop-color="white" stop-opacity="0.01"/>
</linearGradient>
<linearGradient id="paint14_linear_157_626" x1="452.203" y1="208.124" x2="419.572" y2="276.65" gradientUnits="userSpaceOnUse">
<stop stop-color="#6BE8F0"/>
<stop offset="1" stop-color="#6132AF"/>
</linearGradient>
<linearGradient id="paint15_linear_157_626" x1="392.651" y1="263.597" x2="392.651" y2="431.648" gradientUnits="userSpaceOnUse">
<stop stop-color="#6C4DB8"/>
<stop offset="1" stop-color="#370D58"/>
</linearGradient>
<linearGradient id="paint16_linear_157_626" x1="468.977" y1="266.862" x2="468.977" y2="427.572" gradientUnits="userSpaceOnUse">
<stop stop-color="#88C1E0"/>
<stop offset="1" stop-color="#A939C5"/>
</linearGradient>
<linearGradient id="paint17_linear_157_626" x1="461.246" y1="213.514" x2="406.705" y2="257.756" gradientUnits="userSpaceOnUse">
<stop stop-color="#DCD4EF"/>
<stop offset="1" stop-color="white" stop-opacity="0.01"/>
</linearGradient>
<linearGradient id="paint18_linear_157_626" x1="213.267" y1="105.881" x2="213.267" y2="149.483" gradientUnits="userSpaceOnUse">
<stop stop-color="#3EBEEE"/>
<stop offset="1" stop-color="#4C579B"/>
</linearGradient>
<linearGradient id="paint19_linear_157_626" x1="213.266" y1="105.879" x2="213.266" y2="149.48" gradientUnits="userSpaceOnUse">
<stop stop-color="#A6468A"/>
<stop offset="1" stop-color="#671859"/>
</linearGradient>
<clipPath id="clip0_157_626">
<rect width="622" height="452" fill="white"/>
</clipPath>
</defs>
</svg>
