<svg width="229" height="84" viewBox="0 0 229 84" fill="none" xmlns="http://www.w3.org/2000/svg">
<g clip-path="url(#clip0_223_34)">
<path d="M50.5915 42.8322L25.3887 55.8314V28.1628L50.5915 42.8265V42.8322Z" fill="#B179F4"/>
<path d="M0.185547 42.8322L25.3884 55.8314V28.1628L0.185547 42.8322Z" fill="#9D5AE0"/>
<path d="M25.3887 55.8315L50.5915 42.8323V68.8307L25.3887 83.4944V55.8258V55.8315Z" fill="#0BE6C7"/>
<path d="M50.5915 68.8308L25.3887 55.8315V83.5001L50.5915 68.8365V68.8308Z" fill="#09DCBE"/>
<path d="M0.383643 69.8114C-0.143764 70.1084 -0.122745 70.8512 0.418039 71.1197L25.3877 83.4943V55.8257L0.383643 69.8114Z" fill="#48C6B5"/>
<path d="M49.4278 14.1772C49.9399 13.8801 49.9208 13.1507 49.3934 12.8784L25.3887 0.5V28.1686L49.4278 14.1791V14.1772Z" fill="#FF8B73"/>
<path d="M25.3884 28.1687L0.185547 15.1694V42.8361L25.3884 28.1725V28.1687Z" fill="#FFC582"/>
<path d="M0.185547 15.1636L25.3884 28.1629V0.5L0.185547 15.1636Z" fill="#FFA877"/>
<path d="M88.7035 58.3928C86.313 58.3928 83.9913 58.031 81.7498 57.3073C79.537 56.5551 77.798 55.5877 76.5254 54.4089L78.2051 50.8763C79.4185 51.9618 80.9644 52.853 82.8371 53.5462C84.7461 54.2108 86.699 54.5422 88.6978 54.5422C91.3329 54.5422 93.3012 54.1061 94.6025 53.2301C95.9057 52.3236 96.5554 51.1296 96.5554 49.6537C96.5554 48.5682 96.1923 47.6922 95.4662 47.0276C94.7706 46.3344 93.8897 45.803 92.8311 45.4431C91.8011 45.0813 90.3297 44.6757 88.4207 44.2186C86.0302 43.6435 84.0906 43.0684 82.604 42.499C81.1479 41.9238 79.8943 41.0478 78.8318 39.8728C77.8019 38.6636 77.2859 37.0487 77.2859 35.0281C77.2859 33.3389 77.7235 31.8136 78.6025 30.4557C79.5121 29.0979 80.8746 28.0086 82.6938 27.1955C84.5129 26.3785 86.7697 25.9709 89.4641 25.9709C91.3425 25.9709 93.1922 26.2147 95.0076 26.6946C96.8268 27.1802 98.388 27.8734 99.6912 28.7799L98.1892 32.402C96.8573 31.5546 95.4299 30.9204 93.9184 30.4995C92.403 30.0482 90.9202 29.8216 89.4641 29.8216C86.8882 29.8216 84.9505 30.2882 83.6473 31.2232C82.3746 32.1601 81.7383 33.3675 81.7383 34.8453C81.7383 35.9308 82.1014 36.822 82.8275 37.5152C83.5537 38.1799 84.448 38.7093 85.5066 39.1016C86.5958 39.4634 88.0672 39.8538 89.915 40.2804C92.3056 40.8555 94.2298 41.4306 95.686 42C97.1421 42.5751 98.3803 43.4511 99.4141 44.6261C100.473 45.8049 101.006 47.3913 101.006 49.3813C101.006 51.0401 100.553 52.5674 99.6434 53.9537C98.7338 55.3116 97.3561 56.4009 95.5082 57.214C93.6585 57.9967 91.3864 58.3928 88.6921 58.3928H88.6978H88.7035Z" fill="#3F464F"/>
<path d="M125.966 26.331C130.088 26.331 133.329 27.3117 135.689 29.2732C138.051 31.2347 139.233 33.9408 139.233 37.3782C139.233 40.8156 138.051 43.5217 135.689 45.4832C133.327 47.4447 130.086 48.4254 125.966 48.4254H118.107V58.0273H113.562V26.3271H125.97L125.964 26.3329L125.966 26.331ZM125.83 44.491C128.708 44.491 130.906 43.8873 132.421 42.6781C133.936 41.4402 134.693 39.6749 134.693 37.3782C134.693 35.0815 133.938 33.3314 132.421 32.126C130.906 30.8881 128.708 30.2673 125.83 30.2673H118.105V44.4853H125.83V44.491Z" fill="#3F464F"/>
<path d="M156.364 26.3308H151.82V58.0309H156.364V26.3308Z" fill="#3F464F"/>
<path d="M176.337 30.2729V41.3259H192.287V45.2203H176.337V58.0367H171.793V26.3347H194.242V30.2729H176.337Z" fill="#3F464F"/>
<path d="M211.093 30.2729V41.3259H227.045V45.2203H211.093V58.0367H206.551V26.3347H229V30.2729H211.093Z" fill="#3F464F"/>
</g>
<defs>
<clipPath id="clip0_223_34">
<rect width="229" height="83" fill="white" transform="translate(0 0.5)"/>
</clipPath>
</defs>
</svg>
