<svg width="257" height="43" viewBox="0 0 257 43" fill="none" xmlns="http://www.w3.org/2000/svg">
<path d="M26.1712 17.0401V25.7023C26.1283 35.0507 33.5385 42.7267 42.919 42.984C51.7427 42.984 59.11 36.2086 59.881 27.4176C60.0095 26.1312 60.0952 22.7863 60.0952 21.4998C60.0952 20.2134 60.0095 16.8685 59.881 15.5821C59.11 6.23366 50.9288 -0.713312 41.5912 0.0585739C38.4643 0.315869 35.4232 1.4737 32.896 3.36053C32.7675 3.53206 32.7675 3.78935 32.896 3.96088L36.4083 9.83579C36.494 10.0073 36.751 10.0502 36.9223 9.96444C36.9652 9.96444 36.9652 9.92156 36.9652 9.92156C40.9058 6.57672 46.774 7.09131 50.115 11.0365C51.2287 12.3659 51.9568 13.9525 52.2138 15.6678C52.5137 19.4844 52.5137 23.3438 52.2138 27.2032C51.5713 31.8345 47.6307 35.308 42.9618 35.308C40.5203 35.2651 38.2502 34.2788 36.5368 32.5207C34.8235 30.7625 33.8812 28.4039 33.8812 25.9596V17.2974C33.924 7.90608 26.471 0.230101 17.0905 0.0156887C8.26683 0.0585713 0.942333 6.83402 0.214167 15.6249C0 16.9114 0 20.2134 0 21.5427C0 22.8721 0.0428333 26.174 0.214167 27.4605C0.985167 36.8089 9.20917 43.713 18.5468 42.9411C21.6737 42.6838 24.672 41.5689 27.1992 39.682C27.3705 39.5105 27.3705 39.2532 27.242 39.0817L23.6868 33.2068C23.5583 33.0352 23.3442 33.0352 23.1728 33.1639C19.2322 36.5087 13.364 35.9941 10.023 32.0489C8.90933 30.7196 8.18117 29.09 7.92417 27.3747C7.62433 23.5582 7.62433 19.6988 7.92417 15.8393C8.56667 11.208 12.5073 7.77743 17.1333 7.77743C19.5748 7.82031 21.8878 8.80661 23.5583 10.5648C25.2717 12.2372 26.214 14.5957 26.1712 17.0401ZM104.985 38.7815H111.838L122.803 4.47548H115.693L108.283 28.4039L100.444 4.47548H93.8478L85.9665 28.4039L78.642 4.47548H71.5317L82.497 38.7815H89.3503L97.2317 14.9388L104.985 38.7815ZM204.058 38.7815H212.325L225.689 4.47548H218.536L208.213 30.7196L197.89 4.47548H190.737L204.058 38.7815ZM158.74 25.2735C159.64 33.4641 166.536 39.6392 174.76 39.682C178.144 39.682 181.485 38.6529 184.269 36.6803L184.654 36.423L185.897 38.8244H191.422C191.037 36.9376 190.823 35.0078 190.823 33.0781V19.3557C190.523 10.4361 183.027 3.48918 174.16 3.78935C166.193 4.04665 159.64 10.136 158.698 18.0264C158.569 19.2271 158.569 20.5135 158.569 21.457V21.8429C158.612 22.7863 158.612 24.0728 158.74 25.2735ZM174.76 33.6356C169.963 33.5927 165.851 30.1621 164.994 25.445V25.6594L164.951 25.1877C164.866 24.1157 164.78 23.0007 164.823 21.9287V21.5427C164.823 20.4707 164.866 19.3557 164.951 18.2836L164.994 17.8119C165.979 12.4087 171.205 8.84949 176.559 9.87867C180.585 10.6506 183.755 13.781 184.483 17.8119L184.526 18.2836C184.612 19.3557 184.697 20.4278 184.654 21.5427V21.9287C184.654 23.0007 184.612 24.0728 184.526 25.1877L184.483 25.4879V25.6166C183.584 30.2908 179.515 33.6785 174.76 33.6356ZM154.971 19.6988C154.928 10.9079 147.861 3.74647 139.08 3.61783C130.342 3.66071 123.274 10.7363 123.274 19.4415V23.7726C123.446 32.6493 130.684 39.7249 139.551 39.682C145.462 39.682 150.988 36.5945 154.029 31.4915L148.546 28.6612C146.533 31.7059 143.149 33.5069 139.551 33.5069C134.882 33.4212 130.813 30.2908 129.614 25.7452C129.614 25.6166 129.614 25.4879 129.614 25.3593L154.843 25.2735L154.971 19.6988ZM129.442 19.3986V18.5838C129.742 13.2235 134.325 9.14967 139.68 9.44985C144.563 9.70714 148.46 13.5666 148.803 18.4552V19.3128L129.442 19.3986ZM257 19.6988C256.957 10.9079 249.89 3.74647 241.109 3.61783C232.371 3.66071 225.303 10.7363 225.261 19.4415V23.7726C225.389 32.6493 232.671 39.7678 241.537 39.682C247.448 39.682 252.974 36.5945 256.015 31.4915L250.532 28.6612C248.562 31.7059 245.178 33.5069 241.537 33.5069C236.868 33.4212 232.842 30.2479 231.643 25.7452C231.643 25.6166 231.643 25.4879 231.643 25.3593L256.786 25.3164L257 19.6988ZM231.471 19.4415V18.6267C231.771 13.2664 236.354 9.19255 241.708 9.49273C246.591 9.75003 250.489 13.6094 250.832 18.4981V19.3128L231.471 19.4415Z" fill="#34424B"/>
</svg>
