<svg width="229" height="692" viewBox="0 0 229 692" fill="none" xmlns="http://www.w3.org/2000/svg">
<path d="M123 2H678C698.987 2 716 19.0132 716 40V660H161C140.013 660 123 642.987 123 622V2Z" stroke="white" stroke-width="4"/>
<path d="M100 32H655C675.987 32 693 49.0132 693 70V690H138C117.013 690 100 672.987 100 652V32Z" stroke="white" stroke-width="4"/>
<g clip-path="url(#clip0_157_1115)">
<path d="M152.792 200.077C155.392 168.913 132.133 141.55 100.842 138.961C69.5515 136.371 42.0774 159.536 39.4774 190.7C36.8773 221.864 60.1358 249.227 91.4266 251.817C122.717 254.406 150.192 231.242 152.792 200.077Z" fill="#E87335"/>
<path d="M13.9109 118.881H0C2.29867 114.914 4.59733 110.967 6.896 107C9.2343 110.967 11.5726 114.914 13.9109 118.881Z" fill="#121212"/>
<path d="M31.7468 118.881H17.8359C20.1346 114.914 22.4333 110.967 24.7319 107C27.0702 110.967 29.4085 114.914 31.7468 118.881Z" fill="#121212"/>
<path d="M49.5984 118.881H35.6875C37.9862 114.914 40.2848 110.967 42.5835 107C44.9218 110.967 47.2601 114.914 49.5984 118.881Z" fill="#121212"/>
<path d="M67.4343 118.881H53.5234C55.8221 114.914 58.1208 110.967 60.4194 107C62.7577 110.967 65.096 114.914 67.4343 118.881Z" fill="#121212"/>
<path d="M85.2683 118.881H71.3574C73.6561 114.914 75.9548 110.967 78.2534 107C80.5917 110.967 82.93 114.914 85.2683 118.881Z" fill="#121212"/>
<path d="M103.102 118.881H89.1914C91.4901 114.914 93.7887 110.967 96.0874 107C98.4257 110.967 100.764 114.914 103.102 118.881Z" fill="#121212"/>
<path d="M13.9109 134.176H0C2.29867 130.209 4.59733 126.262 6.896 122.295C9.2343 126.262 11.5726 130.209 13.9109 134.176Z" fill="#121212"/>
<path d="M31.7468 134.176H17.8359C20.1346 130.209 22.4333 126.262 24.7319 122.295C27.0702 126.262 29.4085 130.209 31.7468 134.176Z" fill="#121212"/>
<path d="M49.5984 134.176H35.6875C37.9862 130.209 40.2848 126.262 42.5835 122.295C44.9218 126.262 47.2601 130.209 49.5984 134.176Z" fill="#121212"/>
<path d="M67.4343 134.176H53.5234C55.8221 130.209 58.1208 126.262 60.4194 122.295C62.7577 126.262 65.096 130.209 67.4343 134.176Z" fill="#121212"/>
<path d="M85.2683 134.176H71.3574C73.6561 130.209 75.9548 126.262 78.2534 122.295C80.5917 126.262 82.93 130.209 85.2683 134.176Z" fill="#121212"/>
<path d="M103.102 134.176H89.1914C91.4901 130.209 93.7887 126.262 96.0874 122.295C98.4257 126.262 100.764 130.209 103.102 134.176Z" fill="#121212"/>
<path d="M13.9109 149.492H0C2.29867 145.525 4.59733 141.577 6.896 137.61C9.2343 141.577 11.5726 145.525 13.9109 149.492Z" fill="#121212"/>
<path d="M31.7468 149.492H17.8359C20.1346 145.525 22.4333 141.577 24.7319 137.61C27.0702 141.577 29.4085 145.525 31.7468 149.492Z" fill="#121212"/>
<path d="M49.5984 149.492H35.6875C37.9862 145.525 40.2848 141.577 42.5835 137.61C44.9218 141.577 47.2601 145.525 49.5984 149.492Z" fill="#121212"/>
<path d="M67.4343 149.492H53.5234C55.8221 145.525 58.1208 141.577 60.4194 137.61C62.7577 141.577 65.096 145.525 67.4343 149.492Z" fill="#121212"/>
<path d="M85.2683 149.492H71.3574C73.6561 145.525 75.9548 141.577 78.2534 137.61C80.5917 141.577 82.93 145.525 85.2683 149.492Z" fill="#121212"/>
<path d="M103.102 149.492H89.1914C91.4901 145.525 93.7887 141.577 96.0874 137.61C98.4257 141.577 100.764 145.525 103.102 149.492Z" fill="#121212"/>
<path d="M13.9109 164.787H0C2.29867 160.82 4.59733 156.873 6.896 152.906C9.2343 156.873 11.5726 160.82 13.9109 164.787Z" fill="#121212"/>
<path d="M31.7468 164.787H17.8359C20.1346 160.82 22.4333 156.873 24.7319 152.906C27.0702 156.873 29.4085 160.82 31.7468 164.787Z" fill="#121212"/>
<path d="M49.5984 164.787H35.6875C37.9862 160.82 40.2848 156.873 42.5835 152.906C44.9218 156.873 47.2601 160.82 49.5984 164.787Z" fill="#121212"/>
<path d="M67.4343 164.787H53.5234C55.8221 160.82 58.1208 156.873 60.4194 152.906C62.7577 156.873 65.096 160.82 67.4343 164.787Z" fill="#121212"/>
<path d="M85.2683 164.787H71.3574C73.6561 160.82 75.9548 156.873 78.2534 152.906C80.5917 156.873 82.93 160.82 85.2683 164.787Z" fill="#121212"/>
<path d="M103.102 164.787H89.1914C91.4901 160.82 93.7887 156.873 96.0874 152.906C98.4257 156.873 100.764 160.82 103.102 164.787Z" fill="#121212"/>
<path d="M13.9109 180.082H0C2.29867 176.115 4.59733 172.168 6.896 168.201C9.2343 172.168 11.5726 176.115 13.9109 180.082Z" fill="#121212"/>
<path d="M31.7468 180.082H17.8359C20.1346 176.115 22.4333 172.168 24.7319 168.201C27.0702 172.168 29.4085 176.115 31.7468 180.082Z" fill="#121212"/>
<path d="M49.5984 180.082H35.6875C37.9862 176.115 40.2848 172.168 42.5835 168.201C44.9218 172.168 47.2601 176.115 49.5984 180.082Z" fill="#121212"/>
<path d="M67.4343 180.082H53.5234C55.8221 176.115 58.1208 172.168 60.4194 168.201C62.7577 172.168 65.096 176.115 67.4343 180.082Z" fill="#121212"/>
<path d="M85.2683 180.082H71.3574C73.6561 176.115 75.9548 172.168 78.2534 168.201C80.5917 172.168 82.93 176.115 85.2683 180.082Z" fill="#121212"/>
<path d="M103.102 180.082H89.1914C91.4901 176.115 93.7887 172.168 96.0874 168.201C98.4257 172.168 100.764 176.115 103.102 180.082Z" fill="#121212"/>
<path d="M13.9109 195.397H0C2.29867 191.43 4.59733 187.483 6.896 183.516C9.2343 187.483 11.5726 191.43 13.9109 195.397Z" fill="#121212"/>
<path d="M31.7468 195.397H17.8359C20.1346 191.43 22.4333 187.483 24.7319 183.516C27.0702 187.483 29.4085 191.43 31.7468 195.397Z" fill="#121212"/>
<path d="M49.5984 195.397H35.6875C37.9862 191.43 40.2848 187.483 42.5835 183.516C44.9218 187.483 47.2601 191.43 49.5984 195.397Z" fill="#121212"/>
<path d="M67.4343 195.397H53.5234C55.8221 191.43 58.1208 187.483 60.4194 183.516C62.7577 187.483 65.096 191.43 67.4343 195.397Z" fill="#121212"/>
<path d="M85.2683 195.397H71.3574C73.6561 191.43 75.9548 187.483 78.2534 183.516C80.5917 187.483 82.93 191.43 85.2683 195.397Z" fill="#121212"/>
<path d="M103.102 195.397H89.1914C91.4901 191.43 93.7887 187.483 96.0874 183.516C98.4257 187.483 100.764 191.43 103.102 195.397Z" fill="#121212"/>
<path d="M13.9109 210.693H0C2.29867 206.726 4.59733 202.779 6.896 198.812C9.2343 202.779 11.5726 206.726 13.9109 210.693Z" fill="#121212"/>
<path d="M31.7468 210.693H17.8359C20.1346 206.726 22.4333 202.779 24.7319 198.812C27.0702 202.779 29.4085 206.726 31.7468 210.693Z" fill="#121212"/>
<path d="M49.5984 210.693H35.6875C37.9862 206.726 40.2848 202.779 42.5835 198.812C44.9218 202.779 47.2601 206.726 49.5984 210.693Z" fill="#121212"/>
<path d="M67.4343 210.693H53.5234C55.8221 206.726 58.1208 202.779 60.4194 198.812C62.7577 202.779 65.096 206.726 67.4343 210.693Z" fill="#121212"/>
<path d="M85.2683 210.693H71.3574C73.6561 206.726 75.9548 202.779 78.2534 198.812C80.5917 202.779 82.93 206.726 85.2683 210.693Z" fill="#121212"/>
<path d="M103.102 210.693H89.1914C91.4901 206.726 93.7887 202.779 96.0874 198.812C98.4257 202.779 100.764 206.726 103.102 210.693Z" fill="#121212"/>
</g>
<defs>
<clipPath id="clip0_157_1115">
<rect width="153" height="145" fill="white" transform="translate(0 107)"/>
</clipPath>
</defs>
</svg>
