<svg width="248" height="692" viewBox="0 0 248 692" fill="none" xmlns="http://www.w3.org/2000/svg">
<path d="M-425 2H130C150.987 2 168 19.0132 168 40V660H-387C-407.987 660 -425 642.987 -425 622V2Z" stroke="white" stroke-width="4"/>
<path d="M-448 32H107C127.987 32 145 49.0132 145 70V690H-410C-430.987 690 -448 672.987 -448 652V32Z" stroke="white" stroke-width="4"/>
<g clip-path="url(#clip0_157_739)">
<path d="M151.165 530.022C183.842 530.022 210.331 503.378 210.331 470.511C210.331 437.644 183.842 411 151.165 411C118.489 411 92 437.644 92 470.511C92 503.378 118.489 530.022 151.165 530.022Z" fill="white"/>
<path d="M242.843 468.399C245.702 468.399 248.019 466.068 248.019 463.193C248.019 460.317 245.702 457.986 242.843 457.986C239.984 457.986 237.667 460.317 237.667 463.193C237.667 466.068 239.984 468.399 242.843 468.399Z" fill="#383A3C"/>
<path d="M242.935 485.611C245.641 485.611 247.835 483.405 247.835 480.683C247.835 477.961 245.641 475.754 242.935 475.754C240.229 475.754 238.035 477.961 238.035 480.683C238.035 483.405 240.229 485.611 242.935 485.611Z" fill="#383A3C"/>
<path d="M242.934 501.49C240.411 501.49 238.348 499.433 238.348 496.876C238.348 494.319 240.392 492.263 242.934 492.263C245.476 492.263 247.521 494.319 247.521 496.876C247.521 499.433 245.476 501.49 242.934 501.49Z" fill="#383A3C"/>
<path d="M243.027 516.756C240.706 516.756 238.809 514.867 238.809 512.513C238.809 510.16 240.687 508.271 243.027 508.271C245.366 508.271 247.245 510.16 247.245 512.513C247.245 514.867 245.366 516.756 243.027 516.756Z" fill="#383A3C"/>
<path d="M242.843 531.264C240.651 531.264 238.864 529.466 238.864 527.262C238.864 525.057 240.651 523.26 242.843 523.26C245.035 523.26 246.822 525.057 246.822 527.262C246.822 529.466 245.035 531.264 242.843 531.264Z" fill="#383A3C"/>
<path d="M242.843 545.734C240.78 545.734 239.104 544.048 239.104 541.973C239.104 539.897 240.78 538.211 242.843 538.211C244.906 538.211 246.582 539.897 246.582 541.973C246.582 544.048 244.906 545.734 242.843 545.734Z" fill="#383A3C"/>
<path d="M242.843 558.203C240.909 558.203 239.361 556.628 239.361 554.701C239.361 552.774 240.927 551.199 242.843 551.199C244.758 551.199 246.324 552.774 246.324 554.701C246.324 556.628 244.758 558.203 242.843 558.203Z" fill="#383A3C"/>
<path d="M242.843 569.412C241.075 569.412 239.656 567.967 239.656 566.207C239.656 564.447 241.093 563.002 242.843 563.002C244.593 563.002 246.03 564.447 246.03 566.207C246.03 567.967 244.593 569.412 242.843 569.412Z" fill="#383A3C"/>
<path d="M242.843 579.917C241.277 579.917 240.006 578.639 240.006 577.064C240.006 575.489 241.277 574.211 242.843 574.211C244.408 574.211 245.679 575.489 245.679 577.064C245.679 578.639 244.408 579.917 242.843 579.917Z" fill="#383A3C"/>
<path d="M242.843 588.385C241.498 588.385 240.411 587.291 240.411 585.939C240.411 584.586 241.498 583.493 242.843 583.493C244.187 583.493 245.274 584.586 245.274 585.939C245.274 587.291 244.187 588.385 242.843 588.385Z" fill="#383A3C"/>
<path d="M242.842 597C241.627 597 240.65 596.018 240.65 594.795C240.65 593.572 241.627 592.59 242.842 592.59C244.058 592.59 245.034 593.572 245.034 594.795C245.034 596.018 244.058 597 242.842 597Z" fill="#383A3C"/>
<path d="M227.959 468.399C225.104 468.399 222.783 466.064 222.783 463.193C222.783 460.321 225.104 457.986 227.959 457.986C230.814 457.986 233.135 460.321 233.135 463.193C233.135 466.064 230.814 468.399 227.959 468.399Z" fill="#383A3C"/>
<path d="M228.07 485.593C225.362 485.593 223.17 483.388 223.17 480.664C223.17 477.941 225.362 475.736 228.07 475.736C230.777 475.736 232.969 477.941 232.969 480.664C232.969 483.388 230.777 485.593 228.07 485.593Z" fill="#383A3C"/>
<path d="M228.07 501.49C225.546 501.49 223.483 499.433 223.483 496.876C223.483 494.319 225.528 492.263 228.07 492.263C230.612 492.263 232.657 494.319 232.657 496.876C232.657 499.433 230.612 501.49 228.07 501.49Z" fill="#383A3C"/>
<path d="M228.162 516.775C230.491 516.775 232.38 514.875 232.38 512.532C232.38 510.189 230.491 508.289 228.162 508.289C225.832 508.289 223.943 510.189 223.943 512.532C223.943 514.875 225.832 516.775 228.162 516.775Z" fill="#383A3C"/>
<path d="M227.959 531.264C225.767 531.264 223.98 529.466 223.98 527.262C223.98 525.057 225.767 523.26 227.959 523.26C230.151 523.26 231.938 525.057 231.938 527.262C231.938 529.466 230.151 531.264 227.959 531.264Z" fill="#383A3C"/>
<path d="M227.959 545.734C225.896 545.734 224.22 544.048 224.22 541.973C224.22 539.897 225.896 538.211 227.959 538.211C230.022 538.211 231.698 539.897 231.698 541.973C231.698 544.048 230.022 545.734 227.959 545.734Z" fill="#383A3C"/>
<path d="M227.959 558.203C226.025 558.203 224.478 556.628 224.478 554.701C224.478 552.774 226.043 551.199 227.959 551.199C229.875 551.199 231.44 552.774 231.44 554.701C231.44 556.628 229.875 558.203 227.959 558.203Z" fill="#383A3C"/>
<path d="M227.959 569.412C226.191 569.412 224.772 567.967 224.772 566.207C224.772 564.447 226.209 563.002 227.959 563.002C229.709 563.002 231.146 564.447 231.146 566.207C231.146 567.967 229.709 569.412 227.959 569.412Z" fill="#383A3C"/>
<path d="M227.959 579.917C226.393 579.917 225.122 578.639 225.122 577.064C225.122 575.489 226.393 574.211 227.959 574.211C229.524 574.211 230.795 575.489 230.795 577.064C230.795 578.639 229.524 579.917 227.959 579.917Z" fill="#383A3C"/>
<path d="M227.959 588.385C226.614 588.385 225.527 587.291 225.527 585.939C225.527 584.586 226.614 583.493 227.959 583.493C229.303 583.493 230.39 584.586 230.39 585.939C230.39 587.291 229.303 588.385 227.959 588.385Z" fill="#383A3C"/>
<path d="M227.96 597C229.17 597 230.152 596.013 230.152 594.795C230.152 593.577 229.17 592.59 227.96 592.59C226.749 592.59 225.768 593.577 225.768 594.795C225.768 596.013 226.749 597 227.96 597Z" fill="#383A3C"/>
<path d="M213.094 468.399C215.953 468.399 218.27 466.068 218.27 463.193C218.27 460.317 215.953 457.986 213.094 457.986C210.235 457.986 207.918 460.317 207.918 463.193C207.918 466.068 210.235 468.399 213.094 468.399Z" fill="#383A3C"/>
<path d="M213.186 485.611C215.892 485.611 218.086 483.405 218.086 480.683C218.086 477.961 215.892 475.754 213.186 475.754C210.48 475.754 208.286 477.961 208.286 480.683C208.286 483.405 210.48 485.611 213.186 485.611Z" fill="#383A3C"/>
<path d="M213.186 501.49C210.663 501.49 208.6 499.433 208.6 496.876C208.6 494.319 210.644 492.263 213.186 492.263C215.728 492.263 217.773 494.319 217.773 496.876C217.773 499.433 215.728 501.49 213.186 501.49Z" fill="#383A3C"/>
<path d="M213.296 516.775C215.626 516.775 217.515 514.875 217.515 512.532C217.515 510.189 215.626 508.289 213.296 508.289C210.967 508.289 209.078 510.189 209.078 512.532C209.078 514.875 210.967 516.775 213.296 516.775Z" fill="#383A3C"/>
<path d="M213.094 531.264C210.902 531.264 209.115 529.466 209.115 527.262C209.115 525.057 210.902 523.26 213.094 523.26C215.286 523.26 217.073 525.057 217.073 527.262C217.073 529.466 215.286 531.264 213.094 531.264Z" fill="#383A3C"/>
<path d="M213.094 545.734C211.031 545.734 209.354 544.048 209.354 541.973C209.354 539.897 211.031 538.211 213.094 538.211C215.157 538.211 216.833 539.897 216.833 541.973C216.833 544.048 215.157 545.734 213.094 545.734Z" fill="#383A3C"/>
<path d="M213.094 558.203C211.16 558.203 209.612 556.628 209.612 554.701C209.612 552.774 211.178 551.199 213.094 551.199C215.009 551.199 216.575 552.774 216.575 554.701C216.575 556.628 215.009 558.203 213.094 558.203Z" fill="#383A3C"/>
<path d="M213.094 569.412C211.326 569.412 209.907 567.967 209.907 566.207C209.907 564.447 211.344 563.002 213.094 563.002C214.844 563.002 216.281 564.447 216.281 566.207C216.281 567.967 214.844 569.412 213.094 569.412Z" fill="#383A3C"/>
<path d="M213.095 579.917C211.529 579.917 210.258 578.639 210.258 577.064C210.258 575.489 211.529 574.211 213.095 574.211C214.66 574.211 215.931 575.489 215.931 577.064C215.931 578.639 214.66 579.917 213.095 579.917Z" fill="#383A3C"/>
<path d="M213.095 588.385C211.75 588.385 210.663 587.291 210.663 585.939C210.663 584.586 211.75 583.493 213.095 583.493C214.439 583.493 215.526 584.586 215.526 585.939C215.526 587.291 214.439 588.385 213.095 588.385Z" fill="#383A3C"/>
<path d="M213.094 597C211.879 597 210.902 596.018 210.902 594.795C210.902 593.572 211.879 592.59 213.094 592.59C214.31 592.59 215.286 593.572 215.286 594.795C215.286 596.018 214.31 597 213.094 597Z" fill="#383A3C"/>
<path d="M198.229 468.399C195.374 468.399 193.053 466.064 193.053 463.193C193.053 460.321 195.374 457.986 198.229 457.986C201.084 457.986 203.405 460.321 203.405 463.193C203.405 466.064 201.084 468.399 198.229 468.399Z" fill="#383A3C"/>
<path d="M202.838 482.572C203.88 480.06 202.7 477.174 200.203 476.126C197.706 475.078 194.836 476.264 193.794 478.776C192.752 481.288 193.932 484.174 196.429 485.222C198.926 486.271 201.796 485.084 202.838 482.572Z" fill="#383A3C"/>
<path d="M198.321 501.49C195.797 501.49 193.734 499.433 193.734 496.876C193.734 494.319 195.779 492.263 198.321 492.263C200.863 492.263 202.908 494.319 202.908 496.876C202.908 499.433 200.863 501.49 198.321 501.49Z" fill="#383A3C"/>
<path d="M198.414 516.756C196.093 516.756 194.195 514.867 194.195 512.513C194.195 510.16 196.074 508.271 198.414 508.271C200.753 508.271 202.632 510.16 202.632 512.513C202.632 514.867 200.753 516.756 198.414 516.756Z" fill="#383A3C"/>
<path d="M198.229 531.264C196.037 531.264 194.25 529.466 194.25 527.262C194.25 525.057 196.037 523.26 198.229 523.26C200.421 523.26 202.207 525.057 202.207 527.262C202.207 529.466 200.421 531.264 198.229 531.264Z" fill="#383A3C"/>
<path d="M198.23 545.734C196.166 545.734 194.49 544.048 194.49 541.973C194.49 539.897 196.166 538.211 198.23 538.211C200.293 538.211 201.969 539.897 201.969 541.973C201.969 544.048 200.293 545.734 198.23 545.734Z" fill="#383A3C"/>
<path d="M198.229 558.203C196.295 558.203 194.748 556.628 194.748 554.701C194.748 552.774 196.314 551.199 198.229 551.199C200.145 551.199 201.711 552.774 201.711 554.701C201.711 556.628 200.145 558.203 198.229 558.203Z" fill="#383A3C"/>
<path d="M198.229 569.412C196.46 569.412 195.042 567.967 195.042 566.207C195.042 564.447 196.479 563.002 198.229 563.002C199.979 563.002 201.415 564.447 201.415 566.207C201.415 567.967 199.979 569.412 198.229 569.412Z" fill="#383A3C"/>
<path d="M198.229 579.917C196.664 579.917 195.393 578.639 195.393 577.064C195.393 575.489 196.664 574.211 198.229 574.211C199.795 574.211 201.066 575.489 201.066 577.064C201.066 578.639 199.795 579.917 198.229 579.917Z" fill="#383A3C"/>
<path d="M198.229 588.385C196.885 588.385 195.798 587.291 195.798 585.939C195.798 584.586 196.885 583.493 198.229 583.493C199.574 583.493 200.661 584.586 200.661 585.939C200.661 587.291 199.574 588.385 198.229 588.385Z" fill="#383A3C"/>
<path d="M198.229 597C199.44 597 200.421 596.013 200.421 594.795C200.421 593.577 199.44 592.59 198.229 592.59C197.018 592.59 196.037 593.577 196.037 594.795C196.037 596.013 197.018 597 198.229 597Z" fill="#383A3C"/>
<path d="M183.346 468.399C186.205 468.399 188.522 466.068 188.522 463.193C188.522 460.317 186.205 457.986 183.346 457.986C180.487 457.986 178.17 460.317 178.17 463.193C178.17 466.068 180.487 468.399 183.346 468.399Z" fill="#383A3C"/>
<path d="M183.456 485.593C180.749 485.593 178.557 483.388 178.557 480.664C178.557 477.941 180.749 475.736 183.456 475.736C186.164 475.736 188.356 477.941 188.356 480.664C188.356 483.388 186.164 485.593 183.456 485.593Z" fill="#383A3C"/>
<path d="M183.456 501.49C180.932 501.49 178.869 499.433 178.869 496.876C178.869 494.319 180.914 492.263 183.456 492.263C185.998 492.263 188.042 494.319 188.042 496.876C188.042 499.433 185.998 501.49 183.456 501.49Z" fill="#383A3C"/>
<path d="M183.548 516.756C181.227 516.756 179.33 514.867 179.33 512.513C179.33 510.16 181.209 508.271 183.548 508.271C185.888 508.271 187.766 510.16 187.766 512.513C187.766 514.867 185.888 516.756 183.548 516.756Z" fill="#383A3C"/>
<path d="M183.346 531.264C181.154 531.264 179.367 529.466 179.367 527.262C179.367 525.057 181.154 523.26 183.346 523.26C185.538 523.26 187.325 525.057 187.325 527.262C187.325 529.466 185.538 531.264 183.346 531.264Z" fill="#383A3C"/>
<path d="M183.346 545.734C181.283 545.734 179.606 544.048 179.606 541.973C179.606 539.897 181.283 538.211 183.346 538.211C185.409 538.211 187.085 539.897 187.085 541.973C187.085 544.048 185.409 545.734 183.346 545.734Z" fill="#383A3C"/>
<path d="M183.346 558.203C181.412 558.203 179.864 556.628 179.864 554.701C179.864 552.774 181.43 551.199 183.346 551.199C185.261 551.199 186.827 552.774 186.827 554.701C186.827 556.628 185.261 558.203 183.346 558.203Z" fill="#383A3C"/>
<path d="M183.346 569.412C181.578 569.412 180.159 567.967 180.159 566.207C180.159 564.447 181.596 563.002 183.346 563.002C185.096 563.002 186.533 564.447 186.533 566.207C186.533 567.967 185.096 569.412 183.346 569.412Z" fill="#383A3C"/>
<path d="M183.345 579.917C181.78 579.917 180.509 578.639 180.509 577.064C180.509 575.489 181.78 574.211 183.345 574.211C184.911 574.211 186.182 575.489 186.182 577.064C186.182 578.639 184.911 579.917 183.345 579.917Z" fill="#383A3C"/>
<path d="M183.346 588.385C182.001 588.385 180.914 587.291 180.914 585.939C180.914 584.586 182.001 583.493 183.346 583.493C184.69 583.493 185.777 584.586 185.777 585.939C185.777 587.291 184.69 588.385 183.346 588.385Z" fill="#383A3C"/>
<path d="M183.345 597C182.13 597 181.153 596.018 181.153 594.795C181.153 593.572 182.13 592.59 183.345 592.59C184.561 592.59 185.537 593.572 185.537 594.795C185.537 596.018 184.561 597 183.345 597Z" fill="#383A3C"/>
<path d="M168.481 468.399C165.626 468.399 163.305 466.064 163.305 463.193C163.305 460.321 165.626 457.986 168.481 457.986C171.336 457.986 173.657 460.321 173.657 463.193C173.657 466.064 171.336 468.399 168.481 468.399Z" fill="#383A3C"/>
<path d="M168.573 485.593C165.865 485.593 163.673 483.388 163.673 480.664C163.673 477.941 165.865 475.736 168.573 475.736C171.28 475.736 173.472 477.941 173.472 480.664C173.472 483.388 171.28 485.593 168.573 485.593Z" fill="#383A3C"/>
<path d="M168.573 501.49C166.049 501.49 163.986 499.433 163.986 496.876C163.986 494.319 166.031 492.263 168.573 492.263C171.115 492.263 173.16 494.319 173.16 496.876C173.16 499.433 171.115 501.49 168.573 501.49Z" fill="#383A3C"/>
<path d="M168.683 516.775C171.013 516.775 172.901 514.875 172.901 512.532C172.901 510.189 171.013 508.289 168.683 508.289C166.353 508.289 164.465 510.189 164.465 512.532C164.465 514.875 166.353 516.775 168.683 516.775Z" fill="#383A3C"/>
<path d="M168.481 531.264C166.289 531.264 164.502 529.466 164.502 527.262C164.502 525.057 166.289 523.26 168.481 523.26C170.673 523.26 172.459 525.057 172.459 527.262C172.459 529.466 170.673 531.264 168.481 531.264Z" fill="#383A3C"/>
<path d="M168.48 545.734C166.417 545.734 164.741 544.048 164.741 541.973C164.741 539.897 166.417 538.211 168.48 538.211C170.544 538.211 172.22 539.897 172.22 541.973C172.22 544.048 170.544 545.734 168.48 545.734Z" fill="#383A3C"/>
<path d="M168.48 558.203C166.546 558.203 164.999 556.628 164.999 554.701C164.999 552.774 166.565 551.199 168.48 551.199C170.396 551.199 171.962 552.774 171.962 554.701C171.962 556.628 170.396 558.203 168.48 558.203Z" fill="#383A3C"/>
<path d="M168.481 569.412C166.712 569.412 165.294 567.967 165.294 566.207C165.294 564.447 166.731 563.002 168.481 563.002C170.231 563.002 171.667 564.447 171.667 566.207C171.667 567.967 170.231 569.412 168.481 569.412Z" fill="#383A3C"/>
<path d="M168.48 579.917C166.915 579.917 165.644 578.639 165.644 577.064C165.644 575.489 166.915 574.211 168.48 574.211C170.046 574.211 171.317 575.489 171.317 577.064C171.317 578.639 170.046 579.917 168.48 579.917Z" fill="#383A3C"/>
<path d="M168.48 588.385C167.136 588.385 166.049 587.291 166.049 585.939C166.049 584.586 167.136 583.493 168.48 583.493C169.825 583.493 170.912 584.586 170.912 585.939C170.912 587.291 169.825 588.385 168.48 588.385Z" fill="#383A3C"/>
<path d="M168.481 597C169.692 597 170.673 596.013 170.673 594.795C170.673 593.577 169.692 592.59 168.481 592.59C167.27 592.59 166.289 593.577 166.289 594.795C166.289 596.013 167.27 597 168.481 597Z" fill="#383A3C"/>
<path d="M153.597 468.399C150.742 468.399 148.421 466.064 148.421 463.193C148.421 460.321 150.742 457.986 153.597 457.986C156.452 457.986 158.773 460.321 158.773 463.193C158.773 466.064 156.452 468.399 153.597 468.399Z" fill="#383A3C"/>
<path d="M153.707 485.593C151 485.593 148.808 483.388 148.808 480.664C148.808 477.941 151 475.736 153.707 475.736C156.415 475.736 158.607 477.941 158.607 480.664C158.607 483.388 156.415 485.593 153.707 485.593Z" fill="#383A3C"/>
<path d="M153.708 501.49C151.184 501.49 149.121 499.433 149.121 496.876C149.121 494.319 151.166 492.263 153.708 492.263C156.25 492.263 158.294 494.319 158.294 496.876C158.294 499.433 156.25 501.49 153.708 501.49Z" fill="#383A3C"/>
<path d="M153.8 516.775C156.13 516.775 158.018 514.875 158.018 512.532C158.018 510.189 156.13 508.289 153.8 508.289C151.471 508.289 149.582 510.189 149.582 512.532C149.582 514.875 151.471 516.775 153.8 516.775Z" fill="#383A3C"/>
<path d="M153.597 531.264C151.405 531.264 149.618 529.466 149.618 527.262C149.618 525.057 151.405 523.26 153.597 523.26C155.789 523.26 157.576 525.057 157.576 527.262C157.576 529.466 155.789 531.264 153.597 531.264Z" fill="#383A3C"/>
<path d="M153.597 545.734C151.534 545.734 149.857 544.048 149.857 541.973C149.857 539.897 151.534 538.211 153.597 538.211C155.66 538.211 157.336 539.897 157.336 541.973C157.336 544.048 155.66 545.734 153.597 545.734Z" fill="#383A3C"/>
<path d="M153.598 558.203C151.663 558.203 150.116 556.628 150.116 554.701C150.116 552.774 151.682 551.199 153.598 551.199C155.513 551.199 157.079 552.774 157.079 554.701C157.079 556.628 155.513 558.203 153.598 558.203Z" fill="#383A3C"/>
<path d="M153.597 569.412C151.829 569.412 150.41 567.967 150.41 566.207C150.41 564.447 151.847 563.002 153.597 563.002C155.347 563.002 156.784 564.447 156.784 566.207C156.784 567.967 155.347 569.412 153.597 569.412Z" fill="#383A3C"/>
<path d="M153.597 579.917C152.032 579.917 150.761 578.639 150.761 577.064C150.761 575.489 152.032 574.211 153.597 574.211C155.163 574.211 156.434 575.489 156.434 577.064C156.434 578.639 155.163 579.917 153.597 579.917Z" fill="#383A3C"/>
<path d="M153.659 588.376C155.002 588.356 156.074 587.246 156.055 585.895C156.035 584.545 154.931 583.466 153.588 583.485C152.246 583.505 151.173 584.615 151.192 585.966C151.212 587.317 152.316 588.396 153.659 588.376Z" fill="#383A3C"/>
<path d="M153.597 597C154.808 597 155.789 596.013 155.789 594.795C155.789 593.577 154.808 592.59 153.597 592.59C152.387 592.59 151.405 593.577 151.405 594.795C151.405 596.013 152.387 597 153.597 597Z" fill="#383A3C"/>
<path d="M138.732 468.399C141.59 468.399 143.908 466.068 143.908 463.193C143.908 460.317 141.59 457.986 138.732 457.986C135.873 457.986 133.556 460.317 133.556 463.193C133.556 466.068 135.873 468.399 138.732 468.399Z" fill="#383A3C"/>
<path d="M143.356 482.583C144.399 480.072 143.22 477.185 140.723 476.136C138.226 475.087 135.356 476.273 134.313 478.784C133.27 481.296 134.449 484.182 136.946 485.231C139.443 486.28 142.313 485.095 143.356 482.583Z" fill="#383A3C"/>
<path d="M138.842 501.49C136.319 501.49 134.256 499.433 134.256 496.876C134.256 494.319 136.3 492.263 138.842 492.263C141.384 492.263 143.429 494.319 143.429 496.876C143.429 499.433 141.384 501.49 138.842 501.49Z" fill="#383A3C"/>
<path d="M138.935 516.756C136.614 516.756 134.717 514.867 134.717 512.513C134.717 510.16 136.596 508.271 138.935 508.271C141.274 508.271 143.153 510.16 143.153 512.513C143.153 514.867 141.274 516.756 138.935 516.756Z" fill="#383A3C"/>
<path d="M138.732 531.264C136.54 531.264 134.753 529.466 134.753 527.262C134.753 525.057 136.54 523.26 138.732 523.26C140.924 523.26 142.71 525.057 142.71 527.262C142.71 529.466 140.924 531.264 138.732 531.264Z" fill="#383A3C"/>
<path d="M138.732 545.734C136.669 545.734 134.993 544.048 134.993 541.973C134.993 539.897 136.669 538.211 138.732 538.211C140.796 538.211 142.472 539.897 142.472 541.973C142.472 544.048 140.796 545.734 138.732 545.734Z" fill="#383A3C"/>
<path d="M138.732 558.203C136.798 558.203 135.251 556.628 135.251 554.701C135.251 552.774 136.817 551.199 138.732 551.199C140.648 551.199 142.214 552.774 142.214 554.701C142.214 556.628 140.648 558.203 138.732 558.203Z" fill="#383A3C"/>
<path d="M138.733 569.412C136.964 569.412 135.546 567.967 135.546 566.207C135.546 564.447 136.983 563.002 138.733 563.002C140.482 563.002 141.919 564.447 141.919 566.207C141.919 567.967 140.482 569.412 138.733 569.412Z" fill="#383A3C"/>
<path d="M138.732 579.917C137.166 579.917 135.896 578.639 135.896 577.064C135.896 575.489 137.166 574.211 138.732 574.211C140.298 574.211 141.569 575.489 141.569 577.064C141.569 578.639 140.298 579.917 138.732 579.917Z" fill="#383A3C"/>
<path d="M138.732 588.385C140.075 588.385 141.164 587.29 141.164 585.939C141.164 584.588 140.075 583.493 138.732 583.493C137.389 583.493 136.301 584.588 136.301 585.939C136.301 587.29 137.389 588.385 138.732 588.385Z" fill="#383A3C"/>
<path d="M138.732 597C139.943 597 140.924 596.013 140.924 594.795C140.924 593.577 139.943 592.59 138.732 592.59C137.521 592.59 136.54 593.577 136.54 594.795C136.54 596.013 137.521 597 138.732 597Z" fill="#383A3C"/>
</g>
<defs>
<clipPath id="clip0_157_739">
<rect width="156" height="186" fill="white" transform="translate(92 411)"/>
</clipPath>
</defs>
</svg>
