<svg width="139" height="21" viewBox="0 0 139 21" fill="none" xmlns="http://www.w3.org/2000/svg">
<g clip-path="url(#clip0_331_24)">
<path d="M15.21 5.74369C14.6705 5.91812 14.331 5.65648 13.846 4.89646C12.7367 3.05873 11.5485 2.12429 9.70557 2.12429H8.4022C6.27437 2.12429 5.87426 2.53544 5.87426 3.43874V6.7342C5.87426 7.96143 6.55323 8.16078 7.77779 8.16078H8.31733C10.6998 8.16078 10.4997 7.17027 11.4697 7.17027C12.0092 7.17027 12.2093 7.51913 12.3184 8.04241L13.0277 11.3379C13.2277 12.3907 13.0822 12.6523 12.5427 12.7956C11.209 13.1133 11.0393 9.96736 8.31127 9.96736H7.77173C6.55323 9.96736 5.8682 10.1418 5.8682 11.3939V15.8294C5.8682 19.2993 7.65655 18.4832 7.65655 19.8849C7.65655 20.4954 7.25644 20.701 6.09857 20.701H1.58829C0.454664 20.701 0 20.4954 0 19.8849C0 18.4832 1.87322 19.2993 1.87322 15.8294V5.25155C1.87322 1.45772 0 2.62266 0 1.10886C0 0.467215 0.454664 0.292786 1.58829 0.292786H12.5124C14.1613 0.292786 14.5856 0.436067 14.8948 1.31444C15.1494 2.09937 15.4343 3.09611 15.6344 4.31711C15.7738 5.10204 15.7193 5.60041 15.21 5.74369Z" fill="white"/>
<path d="M27.4431 8.92703C27.4431 10.092 26.849 10.852 26.0548 10.8831C24.6666 10.8831 24.7212 9.36933 23.3572 9.36933C22.3326 9.36933 21.3991 10.5966 21.3991 12.7209V16.658C21.3991 19.3679 22.7631 18.7013 22.7631 19.9846C22.7631 20.5702 22.3084 20.7134 21.5143 20.7134H17.4586C16.6645 20.7134 16.1553 20.539 16.1553 19.9534C16.1553 18.7013 17.5738 19.3679 17.5738 16.658V11.1199C17.5738 10.3038 17.2647 9.78049 16.6948 9.33818C16.4099 9.13261 16.1553 8.92703 16.1553 8.52211C16.1553 8.05489 16.3796 7.84931 17.0646 7.5316C18.1134 7.00831 19.8714 6.4788 20.3261 6.45388C20.811 6.45388 21.005 6.74667 21.005 7.32602V9.04539C22.0538 7.26373 23.5572 6.42273 24.9212 6.42273C26.5398 6.42273 27.4491 7.50045 27.4491 8.93326L27.4431 8.92703Z" fill="white"/>
<path d="M43.617 18.9567C43.617 19.9472 42.053 20.9377 40.6951 20.9377C39.4462 20.9377 38.7067 20.24 38.2823 18.7823C36.9486 20.2961 35.0208 20.9689 33.3174 20.9689C30.165 20.9689 28.1221 19.1 28.1221 16.6829C28.1221 13.8858 30.5045 11.8736 34.5359 11.8736C35.2755 11.8736 35.8392 11.9608 36.8092 12.1041C36.3 10.2664 35.7301 8.80867 33.6023 8.80867C32.3232 8.80867 31.1592 9.3631 30.1408 9.94869C29.6012 10.2975 29.0072 9.86147 29.4315 9.13261C30.1408 7.90538 32.2989 6.42273 35.0208 6.42273C38.6521 6.42273 39.7312 8.98933 40.3556 11.4064L41.7438 16.8885C42.053 18.0846 42.4531 18.4957 43.0775 18.4646C43.3927 18.4646 43.617 18.6078 43.617 18.9629V18.9567ZM37.7973 16.5957C37.7125 16.0973 37.4578 15.3684 37.2032 14.353C37.0032 13.6802 35.8999 13.3937 34.9905 13.3937C32.9779 13.3937 31.7836 14.4402 31.7836 16.0475C31.8139 17.7108 33.0021 18.9318 34.8511 18.9318C36.4394 18.9318 38.0277 17.7918 37.8034 16.5957H37.7973Z" fill="white"/>
<path d="M57.6396 16.9445C57.5245 17.8478 57.3244 18.5767 57.1001 19.3367C56.8455 20.2088 56.4757 20.7072 55.5967 20.7072H45.2121C44.418 20.7072 44.1028 20.1839 44.5877 19.5111L52.4504 8.51587H50.2377C48.3342 8.51587 46.9156 9.65589 45.9214 10.7897C45.5516 11.2008 45.1576 11.4313 44.7575 11.2569C44.3574 11.0825 44.3877 10.5841 44.5029 10.0297C44.7272 9.30081 45.0121 8.60309 45.3273 7.87423C45.6668 7.027 46.0063 6.70929 46.8853 6.70929H56.8152C57.6093 6.70929 57.9246 7.23258 57.4396 7.90537L49.5769 18.9006H52.2443C54.1478 18.9006 55.3663 17.7606 56.2756 16.4212C56.5848 15.954 56.9546 15.6363 57.385 15.7484C57.7851 15.8917 57.7245 16.3589 57.6396 16.9445Z" fill="white"/>
<path d="M60.9556 11.313C60.9556 9.3008 59.5916 9.50637 59.5916 8.628C59.5916 8.21684 59.7917 8.0175 60.4706 7.69356C61.6649 7.13912 63.7079 6.44141 64.1625 6.44141C64.6172 6.41026 64.8172 6.70305 64.8172 7.31355L64.7869 11.3067V16.6455C64.7869 19.3554 66.1752 18.6888 66.1752 19.9721C66.1752 20.5577 65.6902 20.701 64.9264 20.701H60.8708C60.0463 20.701 59.5674 20.5265 59.5674 19.941C59.5674 18.6888 60.9556 19.3554 60.9556 16.6455V11.3067V11.313ZM60.216 3.03381C60.2463 1.69445 61.7498 0.205571 63.1986 0.261638C64.2231 0.292786 64.987 1.10886 64.987 2.09937C64.9324 3.52595 63.3987 4.8404 61.9195 4.80925C60.8404 4.7781 60.1857 3.99317 60.216 3.02758V3.03381Z" fill="white"/>
<path d="M81.4754 16.9757C80.9056 18.6078 78.5535 21 74.7767 21C70.7454 21 68.0234 18.1406 68.0234 14.1474C68.0234 9.6559 71.4001 6.4165 75.3708 6.4165C78.7778 6.4165 80.7359 8.51588 81.1299 11.0264C81.2148 11.4936 81.0147 11.8986 80.4752 12.1664C77.5835 13.5058 75.2799 14.4153 72.3276 15.518C72.9217 16.8573 74.2311 18.1718 76.4135 18.1718C78.1473 18.1718 79.5355 17.2685 80.554 16.2468C81.1238 15.6612 81.7482 16.1285 81.4633 16.9757H81.4754ZM71.6001 12.0169C71.6001 12.6586 71.685 13.3563 71.8244 13.8547C73.4734 13.2691 75.0859 12.6897 76.6196 12.0169C77.1046 11.7802 77.4683 11.5808 77.2743 10.8208C76.8742 9.13261 75.486 8.07981 74.122 8.34145C72.4731 8.54703 71.5941 10.148 71.5941 12.0169H71.6001Z" fill="white"/>
<path d="M94.5583 8.92703C94.5583 10.092 93.9642 10.852 93.1701 10.8831C91.7818 10.8831 91.8364 9.36933 90.4724 9.36933C89.4479 9.36933 88.5143 10.5966 88.5143 12.7209V16.658C88.5143 19.3679 89.8783 18.7013 89.8783 19.9846C89.8783 20.5702 89.4236 20.7134 88.6295 20.7134H84.5739C83.7797 20.7134 83.2705 20.539 83.2705 19.9534C83.2705 18.7013 84.6891 19.3679 84.6891 16.658V11.1199C84.6891 10.3038 84.3799 9.78049 83.81 9.33818C83.5251 9.13261 83.2705 8.92703 83.2705 8.52211C83.2705 8.05489 83.4948 7.84931 84.1798 7.5316C85.2286 7.00831 86.9866 6.4788 87.4413 6.45388C87.9263 6.45388 88.1203 6.74667 88.1203 7.32602V9.04539C89.169 7.26373 90.6724 6.42273 92.0364 6.42273C93.655 6.42273 94.5644 7.50045 94.5644 8.93326L94.5583 8.92703Z" fill="white"/>
<path d="M119.983 0.32393C120.862 0.32393 121.456 0.467211 121.456 1.05279C121.456 2.13052 119.898 1.83772 119.044 4.03054L113.085 19.779C112.885 20.3646 112.715 20.6262 111.581 20.7695C110.278 20.9439 109.963 20.8567 109.738 20.2151L103.464 4.14891C102.555 1.72559 101.391 2.22396 101.391 1.14624C101.391 0.504588 101.791 0.299011 102.894 0.299011H107.465C108.374 0.299011 108.829 0.504588 108.829 1.11509C108.829 2.25511 106.956 1.84395 107.804 4.14891L112.4 16.1907L116.886 4.03054C117.71 1.75674 116.146 2.13674 116.146 1.08394C116.146 0.442292 116.686 0.32393 117.425 0.32393H119.977H119.983Z" fill="white"/>
<path d="M121.116 10.908C121.116 4.87155 125.602 0 131.477 0C133.235 0 134.259 0.498368 134.938 0.498368C135.617 0.498368 135.847 0.031148 136.502 0.031148C137.011 0.031148 137.327 0.323939 137.666 1.57609C137.981 2.59775 138.29 3.81875 138.545 5.56927C138.66 6.3542 138.515 6.82142 137.89 6.88371C137.296 6.93978 137.042 6.47256 136.472 5.60042C135.168 3.64432 133.519 1.9561 131.022 1.9561C127.391 1.9561 125.202 5.07713 125.202 9.07031C125.202 14.1163 127.839 18.4023 132.295 18.4023C134.653 18.4023 136.351 17.3495 137.86 15.6924C138.539 14.9324 139.333 15.7484 138.854 16.6829C137.805 18.9006 134.823 21 130.937 21C125.148 21 121.116 17.094 121.116 10.908Z" fill="white"/>
</g>
<defs>
<clipPath id="clip0_331_24">
<rect width="139" height="21" fill="white"/>
</clipPath>
</defs>
</svg>
